<svg width="34" height="34" viewBox="0 0 34 34" fill="none" xmlns="http://www.w3.org/2000/svg">
<path d="M22.4513 20.0747C22.3169 19.9404 22.2321 19.7565 22.2321 19.5444L22.2321 11.7096L14.3973 11.7096C13.9872 11.7096 13.6478 11.3702 13.6478 10.9601C13.6478 10.55 13.9872 10.2106 14.3973 10.2106L22.9816 10.2106C23.3917 10.2106 23.7311 10.55 23.7311 10.9601L23.7311 19.5444C23.7311 19.9545 23.3917 20.2939 22.9816 20.2939C22.7765 20.301 22.5856 20.2091 22.4513 20.0747Z" fill="white"/>
<path d="M10.4304 23.5114C10.1405 23.2215 10.1405 22.7406 10.4304 22.4507L22.331 10.5501C22.6209 10.2602 23.1017 10.2602 23.3917 10.5501C23.6816 10.84 23.6816 11.3209 23.3917 11.6108L11.4911 23.5114C11.2011 23.8013 10.7203 23.8013 10.4304 23.5114Z" fill="white"/>
</svg>
